<svg version="1.1" viewBox="89.43596 -61.8092842 281.128 324.618622" xmlns="http://www.w3.org/2000/svg"><!--Made with Vexlio.--><g id="layer0"><polygon style="stroke:#808080;stroke-opacity:1;stroke-width:4;stroke-miterlimit:4;stroke-linecap:butt;stroke-linejoin:miter;fill:#000000;fill-opacity:1" transform="matrix(0.9999993 3.413297E-07 -3.413297E-07 0.9999993 285.2017 724.1429)" points="-55.2019577,-783.6433 83.36211,-703.6433 83.36211,-543.6433 -55.2019577,-463.6433 -193.766,-543.6433 -193.766037,-703.64325 " id="polygon0" /><path style="stroke:#ffffff;stroke-opacity:1;stroke-width:12;stroke-miterlimit:16;stroke-linecap:butt;stroke-linejoin:miter;fill:#ffffff;fill-opacity:0" transform="matrix(1 0 0 1 892.4104 1099.836)" d="M -663.2441 -1003.50275 Q -658.8466 -1003.50275 -658.24585 -998.5045 Q -657.5807 -992.971 -663.2441 -989.3656 Q -669.890259 -985.13446 -678.238831 -988.508 Q -688.0011 -992.4528 -691.518433 -1003.50275 Q -695.5527 -1016.1767 -688.2353 -1028.494 Q -679.998535 -1042.35889 -663.2441 -1045.91431 Q -644.6742 -1049.85486 -628.256348 -1038.49048 Q -610.2839 -1026.0498 -606.695435 -1003.50275 Q -602.8061 -979.0654 -618.2599 -958.518555 Q -634.8739 -936.4291 -663.2441 -932.8169 Q -693.5406 -928.9595 -718.224731 -948.5221 Q -744.4377 -969.296265 -748.0671 -1003.50275 Q -751.903 -1039.65564 -728.221252 -1068.47986 Q -703.29364 -1098.82056 -663.2441 -1102.46289 Q -621.235962 -1106.28333 -588.270447 -1078.47644 Q -553.7991 -1049.39917 -550.1467 -1003.50275" fill-rule="evenodd" id="path0" /><path style="stroke:#ff0000;stroke-opacity:1;stroke-width:12;stroke-miterlimit:16;stroke-linecap:butt;stroke-linejoin:miter;fill:#ffffff;fill-opacity:0" transform="matrix(-1 0 0 -1 -417.4111 -659.6694)" d="M -646.577454 -756.0028 Q -642.18 -756.0028 -641.5792 -751.0046 Q -640.914063 -745.471069 -646.577454 -741.865662 Q -653.223633 -737.6345 -661.5722 -741.008057 Q -671.3345 -744.9529 -674.8518 -756.0028 Q -678.886047 -768.676758 -671.568665 -780.994 Q -663.3319 -794.8589 -646.577454 -798.4143 Q -628.007568 -802.355 -611.5897 -790.9905 Q -593.617249 -778.549866 -590.0288 -756.0028 Q -586.139465 -731.5655 -601.593262 -711.0186 Q -618.2073 -688.929138 -646.577454 -685.316956 Q -676.873962 -681.4595 -701.5581 -701.022156 Q -727.771057 -721.7963 -731.400452 -756.0028 Q -735.2364 -792.1557 -711.5546 -820.98 Q -686.627 -851.3207 -646.577454 -854.962952 Q -604.569336 -858.783447 -571.6038 -830.97644 Q -537.132446 -801.899231 -533.4801 -756.0028" fill-rule="evenodd" id="path1" /></g></svg>